<svg width="992" height="300" viewBox="0 0 992 300" xmlns="http://www.w3.org/2000/svg">
    <text x="95" y="273" text-anchor="end" class="axes-tick" font-family="Sans serif" font-size="0.8em">0</text>
    <line x1="100.5" y1="241.5" x2="992.5" y2="241.5" stroke="#ccc"/>
    <text x="95" y="246" text-anchor="end" class="axes-tick" font-family="Sans serif" font-size="0.8em">10</text>
    <line x1="100.5" y1="214.5" x2="992.5" y2="214.5" stroke="#ccc"/>
    <text x="95" y="219" text-anchor="end" class="axes-tick" font-family="Sans serif" font-size="0.8em">20</text>
    <line x1="100.5" y1="187.5" x2="992.5" y2="187.5" stroke="#ccc"/>
    <text x="95" y="192" text-anchor="end" class="axes-tick" font-family="Sans serif" font-size="0.8em">30</text>
    <line x1="100.5" y1="160.5" x2="992.5" y2="160.5" stroke="#ccc"/>
    <text x="95" y="165" text-anchor="end" class="axes-tick" font-family="Sans serif" font-size="0.8em">40</text>
    <line x1="100.5" y1="133.5" x2="992.5" y2="133.5" stroke="#ccc"/>
    <text x="95" y="138" text-anchor="end" class="axes-tick" font-family="Sans serif" font-size="0.8em">50</text>
    <line x1="100.5" y1="106.5" x2="992.5" y2="106.5" stroke="#ccc"/>
    <text x="95" y="111" text-anchor="end" class="axes-tick" font-family="Sans serif" font-size="0.8em">60</text>
    <line x1="100.5" y1="79.5" x2="992.5" y2="79.5" stroke="#ccc"/>
    <text x="95" y="84" text-anchor="end" class="axes-tick" font-family="Sans serif" font-size="0.8em">70</text>
    <line x1="100.5" y1="52.5" x2="992.5" y2="52.5" stroke="#ccc"/>
    <text x="95" y="57" text-anchor="end" class="axes-tick" font-family="Sans serif" font-size="0.8em">80</text>
    <line x1="100.5" y1="25.5" x2="992.5" y2="25.5" stroke="#ccc"/>
    <text x="95" y="30" text-anchor="end" class="axes-tick" font-family="Sans serif" font-size="0.8em">90</text>
    <text x="100" y="283" class="axes-tick" font-family="Sans serif" font-size="0.8em">May</text>
    <text x="100" y="300" class="axes-tick" font-family="Sans serif" font-size="0.8em">2017</text>
    <text x="174" y="283" class="axes-tick" font-family="Sans serif" font-size="0.8em">Jun</text>
    <text x="248" y="283" class="axes-tick" font-family="Sans serif" font-size="0.8em">Jul</text>
    <text x="322" y="283" class="axes-tick" font-family="Sans serif" font-size="0.8em">Aug</text>
    <text x="396" y="283" class="axes-tick" font-family="Sans serif" font-size="0.8em">Sep</text>
    <text x="470" y="283" class="axes-tick" font-family="Sans serif" font-size="0.8em">Oct</text>
    <text x="544" y="283" class="axes-tick" font-family="Sans serif" font-size="0.8em">Nov</text>
    <text x="618" y="283" class="axes-tick" font-family="Sans serif" font-size="0.8em">Dec</text>
    <text x="692" y="283" class="axes-tick" font-family="Sans serif" font-size="0.8em">Jan</text>
    <text x="692" y="300" class="axes-tick" font-family="Sans serif" font-size="0.8em">2018</text>
    <text x="766" y="283" class="axes-tick" font-family="Sans serif" font-size="0.8em">Feb</text>
    <text x="840" y="283" class="axes-tick" font-family="Sans serif" font-size="0.8em">Mar</text>
    <text x="914" y="283" class="axes-tick" font-family="Sans serif" font-size="0.8em">Apr</text>
    <line x1="100.5" y1="24.5" x2="100.5" y2="268.5" stroke="black"/>
    <line x1="100.5" y1="268.5" x2="992.5" y2="268.5" stroke="black"/>
    <text transform="translate(105 29) rotate(90)" class="axes-label" font-family="Sans serif">Device Count</text>
    <text x="987" y="263" class="axes-label" text-anchor="end" font-family="Sans serif">Time</text>
    <polyline
            points="100.0,262.5777777777778 102.82278481012658,262.5777777777778 105.64556962025317,262.5777777777778 108.46835443037975,259.8666666666667 111.29113924050633,259.8666666666667 114.1139240506329,262.5777777777778 116.9367088607595,262.5777777777778 119.75949367088607,259.8666666666667 122.58227848101265,257.15555555555557 125.40506329113924,257.15555555555557 128.2278481012658,257.15555555555557 131.0506329113924,257.15555555555557 133.873417721519,257.15555555555557 136.69620253164555,257.15555555555557 139.51898734177215,257.15555555555557 142.34177215189874,254.44444444444446 145.1645569620253,254.44444444444446 147.9873417721519,254.44444444444446 150.81012658227849,254.44444444444446 153.63291139240505,254.44444444444446 156.45569620253164,254.44444444444446 159.27848101265823,254.44444444444446 162.1012658227848,254.44444444444446 164.9240506329114,254.44444444444446 167.74683544303798,254.44444444444446 170.56962025316454,254.44444444444446 173.39240506329114,254.44444444444446 176.21518987341773,254.44444444444446 179.0379746835443,254.44444444444446 181.86075949367088,251.73333333333335 184.68354430379748,249.0222222222222 187.50632911392404,243.6 190.32911392405063,243.6 193.15189873417722,243.6 195.9746835443038,243.6 198.79746835443038,243.6 201.62025316455697,243.6 204.44303797468353,243.6 207.26582278481013,243.6 210.08860759493672,243.6 212.91139240506328,243.6 215.73417721518987,243.6 218.55696202531647,243.6 221.37974683544303,243.6 224.20253164556962,243.6 227.0253164556962,243.6 229.84810126582278,243.6 232.67088607594937,243.6 235.49367088607596,243.6 238.31645569620252,238.17777777777778 241.13924050632912,238.17777777777778 243.96202531645568,238.17777777777778 246.78481012658227,238.17777777777778 249.60759493670886,238.17777777777778 252.43037974683543,238.17777777777778 255.25316455696202,238.17777777777778 258.0759493670886,232.75555555555556 260.89873417721515,232.75555555555556 263.72151898734177,232.75555555555556 266.5443037974684,230.04444444444445 269.36708860759495,230.04444444444445 272.1898734177215,230.04444444444445 275.0126582278481,227.33333333333331 277.83544303797464,227.33333333333331 280.65822784810126,227.33333333333331 283.4810126582279,227.33333333333331 286.30379746835445,227.33333333333331 289.126582278481,227.33333333333331 291.9493670886076,227.33333333333331 294.77215189873414,227.33333333333331 297.59493670886076,221.9111111111111 300.4177215189874,219.2 303.24050632911394,219.2 306.0632911392405,219.2 308.88607594936707,219.2 311.70886075949363,219.2 314.53164556962025,219.2 317.3544303797469,219.2 320.17721518987344,219.2 323.0,219.2 325.82278481012656,219.2 328.6455696202531,219.2 331.46835443037975,219.2 334.2911392405063,213.77777777777777 337.11392405063293,213.77777777777777 339.9367088607595,213.77777777777777 342.75949367088606,213.77777777777777 345.5822784810126,213.77777777777777 348.40506329113924,213.77777777777777 351.2278481012658,213.77777777777777 354.0506329113924,211.06666666666666 356.873417721519,208.35555555555555 359.69620253164555,208.35555555555555 362.5189873417722,202.93333333333334 365.34177215189874,202.93333333333334 368.1645569620253,202.93333333333334 370.9873417721519,202.93333333333334 373.8101265822785,202.93333333333334 376.63291139240505,202.93333333333334 379.4556962025316,202.93333333333334 382.27848101265823,202.93333333333334 385.1012658227848,202.93333333333334 387.92405063291136,202.93333333333334 390.746835443038,202.93333333333334 393.56962025316454,202.93333333333334 396.3924050632911,200.22222222222223 399.2151898734177,200.22222222222223 402.0379746835443,200.22222222222223 404.86075949367086,194.8 407.6835443037975,194.8 410.50632911392404,194.8 413.3291139240506,194.8 416.1518987341772,194.8 418.9746835443038,194.8 421.79746835443035,194.8 424.62025316455697,194.8 427.44303797468353,194.8 430.2658227848101,194.8 433.0886075949367,194.8 435.9113924050633,194.8 438.73417721518985,192.0888888888889 441.55696202531647,192.0888888888889 444.37974683544303,192.0888888888889 447.2025316455696,186.66666666666666 450.0253164556962,186.66666666666666 452.8481012658228,186.66666666666666 455.67088607594934,186.66666666666666 458.49367088607596,186.66666666666666 461.3164556962025,186.66666666666666 464.1392405063291,183.95555555555555 466.9620253164557,183.95555555555555 469.7848101265823,183.95555555555555 472.60759493670884,183.95555555555555 475.43037974683546,183.95555555555555 478.253164556962,183.95555555555555 481.0759493670886,183.95555555555555 483.8987341772152,183.95555555555555 486.72151898734177,183.95555555555555 489.54430379746833,183.95555555555555 492.36708860759495,183.95555555555555 495.1898734177215,183.95555555555555 498.0126582278481,183.95555555555555 500.8354430379747,183.95555555555555 503.65822784810126,183.95555555555555 506.4810126582278,181.24444444444444 509.30379746835445,181.24444444444444 512.126582278481,181.24444444444444 514.9493670886076,181.24444444444444 517.7721518987341,181.24444444444444 520.5949367088608,178.53333333333333 523.4177215189873,175.82222222222222 526.2405063291139,175.82222222222222 529.0632911392405,175.82222222222222 531.8860759493671,175.82222222222222 534.7088607594937,175.82222222222222 537.5316455696202,175.82222222222222 540.3544303797469,175.82222222222222 543.1772151898734,175.82222222222222 546.0,175.82222222222222 548.8227848101266,175.82222222222222 551.6455696202531,175.82222222222222 554.4683544303798,173.1111111111111 557.2911392405063,173.1111111111111 560.1139240506329,173.1111111111111 562.9367088607595,173.1111111111111 565.7594936708861,170.39999999999998 568.5822784810126,170.39999999999998 571.4050632911392,170.39999999999998 574.2278481012659,170.39999999999998 577.0506329113923,167.68888888888887 579.873417721519,167.68888888888887 582.6962025316456,164.97777777777776 585.5189873417721,164.97777777777776 588.3417721518988,164.97777777777776 591.1645569620252,164.97777777777776 593.9873417721519,164.97777777777776 596.8101265822785,162.26666666666665 599.632911392405,162.26666666666665 602.4556962025316,162.26666666666665 605.2784810126582,162.26666666666665 608.1012658227849,162.26666666666665 610.9240506329113,162.26666666666665 613.746835443038,162.26666666666665 616.5696202531645,162.26666666666665 619.3924050632911,162.26666666666665 622.2151898734177,162.26666666666665 625.0379746835443,162.26666666666665 627.8607594936709,162.26666666666665 630.6835443037975,162.26666666666665 633.506329113924,162.26666666666665 636.3291139240506,162.26666666666665 639.1518987341772,159.55555555555554 641.9746835443038,159.55555555555554 644.7974683544304,159.55555555555554 647.620253164557,154.13333333333333 650.4430379746835,154.13333333333333 653.2658227848101,151.42222222222222 656.0886075949367,151.42222222222222 658.9113924050632,148.7111111111111 661.7341772151899,148.7111111111111 664.5569620253165,148.7111111111111 667.379746835443,148.7111111111111 670.2025316455696,148.7111111111111 673.0253164556962,146.0 675.8481012658227,140.57777777777778 678.6708860759494,140.57777777777778 681.493670886076,135.15555555555554 684.3164556962025,132.44444444444443 687.1392405063291,132.44444444444443 689.9620253164557,132.44444444444443 692.7848101265822,132.44444444444443 695.6075949367089,132.44444444444443 698.4303797468355,132.44444444444443 701.253164556962,129.73333333333332 704.0759493670886,129.73333333333332 706.8987341772151,129.73333333333332 709.7215189873417,129.73333333333332 712.5443037974684,127.02222222222221 715.367088607595,127.02222222222221 718.1898734177215,127.02222222222221 721.0126582278481,127.02222222222221 723.8354430379746,127.02222222222221 726.6582278481012,124.3111111111111 729.4810126582279,121.6 732.3037974683544,121.6 735.126582278481,121.6 737.9493670886076,118.88888888888889 740.7721518987341,118.88888888888889 743.5949367088607,118.88888888888889 746.4177215189874,116.17777777777778 749.2405063291139,110.75555555555556 752.0632911392405,110.75555555555556 754.8860759493671,110.75555555555556 757.7088607594936,110.75555555555556 760.5316455696202,110.75555555555556 763.3544303797469,108.04444444444442 766.1772151898734,105.33333333333331 769.0,105.33333333333331 771.8227848101266,105.33333333333331 774.6455696202531,105.33333333333331 777.4683544303797,105.33333333333331 780.2911392405064,105.33333333333331 783.1139240506329,105.33333333333331 785.9367088607595,102.6222222222222 788.7594936708861,102.6222222222222 791.5822784810126,102.6222222222222 794.4050632911392,97.19999999999999 797.2278481012659,94.48888888888888 800.0506329113924,94.48888888888888 802.873417721519,94.48888888888888 805.6962025316456,94.48888888888888 808.5189873417721,94.48888888888888 811.3417721518987,94.48888888888888 814.1645569620254,94.48888888888888 816.9873417721519,91.77777777777777 819.8101265822785,91.77777777777777 822.632911392405,91.77777777777777 825.4556962025316,91.77777777777777 828.2784810126582,91.77777777777777 831.1012658227847,89.06666666666666 833.9240506329114,89.06666666666666 836.746835443038,89.06666666666666 839.5696202531645,89.06666666666666 842.3924050632911,89.06666666666666 845.2151898734177,89.06666666666666 848.0379746835442,86.35555555555555 850.8607594936709,83.64444444444445 853.6835443037975,83.64444444444445 856.506329113924,83.64444444444445 859.3291139240506,80.93333333333334 862.1518987341772,80.93333333333334 864.9746835443037,80.93333333333334 867.7974683544304,75.51111111111109 870.620253164557,72.79999999999998 873.4430379746835,72.79999999999998 876.2658227848101,72.79999999999998 879.0886075949367,72.79999999999998 881.9113924050632,70.08888888888887 884.7341772151899,70.08888888888887 887.5569620253165,70.08888888888887 890.379746835443,70.08888888888887 893.2025316455696,70.08888888888887 896.0253164556962,70.08888888888887 898.8481012658227,67.37777777777777 901.6708860759494,67.37777777777777 904.493670886076,64.66666666666666 907.3164556962025,61.95555555555555 910.1392405063291,61.95555555555555 912.9620253164557,61.95555555555555 915.7848101265822,61.95555555555555 918.6075949367089,61.95555555555555 921.4303797468355,56.53333333333333 924.253164556962,56.53333333333333 927.0759493670886,56.53333333333333 929.8987341772151,53.82222222222222 932.7215189873417,53.82222222222222 935.5443037974684,53.82222222222222 938.367088607595,53.82222222222222 941.1898734177215,53.82222222222222 944.0126582278481,51.111111111111086 946.8354430379746,51.111111111111086 949.6582278481012,51.111111111111086 952.4810126582279,48.39999999999998 955.3037974683544,48.39999999999998 958.126582278481,48.39999999999998 960.9493670886076,48.39999999999998 963.7721518987341,48.39999999999998 966.5949367088607,48.39999999999998 969.4177215189874,45.68888888888887 972.2405063291139,45.68888888888887 975.0632911392405,45.68888888888887 977.8860759493671,42.97777777777776 980.7088607594936,42.97777777777776 983.5316455696202,42.97777777777776 986.3544303797469,42.97777777777776 989.1772151898734,42.97777777777776 992.0,42.97777777777776"
            fill="none" stroke="#009900"/>
</svg>
